<svg fill="none" xmlns="http://www.w3.org/2000/svg" viewBox="0 0 106 100">
  <path d="M99.7369 53.0452c0 22.5747-18.3006 40.8753-40.8753 40.8753-22.5746 0-40.8753-18.3006-40.8753-40.8753 0-5.5871.7546-13.325 2.7831-18.1758 6.1704-14.7493 21.1038-22.6995 38.0922-22.6995 17.9334 0 33.3972 8.6883 38.9033 24.7545 1.4252 4.1582 1.972 11.4796 1.972 16.1208Z" fill="#FD4301" stroke="#000" stroke-width="1.53816" stroke-miterlimit="10"/>
  <path d="M58.8614 86.5178c22.1168 0 40.046-17.9292 40.046-40.046 0-22.1168-17.9292-40.04602-40.046-40.04602-22.1168 0-40.046 17.92922-40.046 40.04602 0 22.1168 17.9292 40.046 40.046 40.046Z" fill="url(#a)" stroke="#000" stroke-width="1.53816" stroke-miterlimit="10"/>
  <path d="M58.8604 22.0662c14.3894 0 26.095 11.3575 26.721 25.5929.0174-.3964.0602-.7865.0602-1.1874 0-14.7904-11.9899-26.7803-26.7803-26.7803-14.7903 0-26.7802 11.9899-26.7802 26.7803 0 .4009.0428.791.0601 1.1874.6261-14.2354 12.3308-25.5929 26.7201-25.5929h-.0009Z" fill="#31322E" stroke="#868888" stroke-width=".58323" stroke-miterlimit="10"/>
  <path d="M58.8604 22.0662c14.3894 0 26.095 11.3575 26.721 25.5929.0174-.3964.0602-.7865.0602-1.1874 0-14.7904-11.9899-26.7803-26.7803-26.7803-14.7903 0-26.7802 11.9899-26.7802 26.7803 0 .4009.0428.791.0601 1.1874.6261-14.2354 12.3308-25.5929 26.7201-25.5929h-.0009Z" fill="#FD4301" stroke="#000" stroke-width="1.07671" stroke-miterlimit="10"/>
  <path d="M58.8598 73.2541c14.3893 0 26.0949-11.3575 26.721-25.5929-.6261-14.2354-12.3308-25.5928-26.721-25.5928-14.3903 0-26.095 11.3574-26.7202 25.5928.6261 14.2354 12.3308 25.5929 26.7202 25.5929Z" fill="url(#b)" stroke="#000" stroke-width="1.07671" stroke-miterlimit="10"/>
  <path d="m74.6503 60.3197.0119-2.774-15.7518-23.5616-.0064-.0036-.0063.0036L43.1514 57.614l.0118 2.7084 31.4862-.0018.0009-.0009Zm-10.3569-5.0459h-10.777v-.0018l5.3885-9.1886 5.3876 9.1886v.0018h.0009Z" fill="#FD4301" stroke="#000" stroke-width="1.07671" stroke-miterlimit="10"/>
  <path d="m58.9117 30.1482-.0064-.0037v12.103l5.3876 9.1886 10.3404 5.9708h.0174l-15.739-27.2587Z" fill="#fff" stroke="#000" stroke-width="1.07671" stroke-linejoin="round"/>
  <path d="M64.293 51.4374H53.516l.0009-.0019-10.345 5.9727 31.4607-.0018-10.3405-5.9709.0009.0019Z" fill="#fff" stroke="#000" stroke-width="1.07671" stroke-linejoin="round"/>
  <path d="M58.9049 42.2475v-12.103l-.0064.0037-15.7344 27.2605h.0082l10.345-5.9726 5.3876-9.1886ZM22.6907 16.6934h-9.821c-3.64843 0-6.60603 2.9576-6.60603 6.6059v.001c0 3.6483 2.9576 6.6059 6.60603 6.6059h9.821c3.6484 0 6.606-2.9576 6.606-6.6059v-.001c0-3.6483-2.9576-6.6059-6.606-6.6059Z" fill="#fff" stroke="#000" stroke-width="1.07671" stroke-linejoin="round"/>
  <path d="M15.7022 23.2714c.0027-.1986.1668-.3572.3654-.3545l1.3579.0201.02-1.3579c.0027-.1986.1668-.3572.3654-.3545.1987.0037.3582.1668.3545.3655l-.02 1.3569 1.3578.02c.1996.0028.3582.1668.3545.3655-.0027.1986-.1668.3572-.3654.3545l-1.3578-.0201-.0201 1.3579c-.0027.1986-.1668.3572-.3654.3544-.0392 0-.0766-.0072-.1121-.0191-.1431-.0492-.2452-.1859-.2424-.3463l.02-1.3569-1.3578-.0201c-.0392 0-.0766-.0072-.1121-.0191-.1431-.0492-.2451-.1859-.2424-.3463Z" fill="#000"/>
  <defs>
    <linearGradient id="a" x1="88.6207" y1="19.6751" x2="29.1012" y2="73.2675" gradientUnits="userSpaceOnUse">
      <stop stop-color="#9D7CBF"/>
      <stop offset=".6" stop-color="#FD0189"/>
      <stop offset=".97" stop-color="#FD5C3F"/>
    </linearGradient>
    <linearGradient id="b" x1="78.1583" y1="30.2846" x2="39.5622" y2="65.0369" gradientUnits="userSpaceOnUse">
      <stop stop-color="#9D7CBF"/>
      <stop offset=".6" stop-color="#FD0189"/>
      <stop offset=".97" stop-color="#FD5C3F"/>
    </linearGradient>
  </defs>
</svg>
